<mxfile host="app.diagrams.net" modified="2022-01-29T17:12:08.148Z" agent="5.0 (Windows NT 10.0; Win64; x64) AppleWebKit/537.36 (KHTML, like Gecko) Chrome/97.0.4692.99 Safari/537.36" etag="vJpN2iyMIbiOPmQqI51Y" version="16.5.0" type="github" pages="2">
  <diagram id="um8vmuJow--je3Uenj_e" name="调用过程">
    <mxGraphModel dx="1038" dy="664" grid="1" gridSize="10" guides="1" tooltips="1" connect="1" arrows="1" fold="1" page="1" pageScale="1" pageWidth="827" pageHeight="1169" math="0" shadow="0">
      <root>
        <mxCell id="0" />
        <mxCell id="1" parent="0" />
        <mxCell id="8i48zz007QwOmcsbFa2n-3" value="" style="edgeStyle=orthogonalEdgeStyle;rounded=0;orthogonalLoop=1;jettySize=auto;html=1;" parent="1" source="8i48zz007QwOmcsbFa2n-1" target="8i48zz007QwOmcsbFa2n-2" edge="1">
          <mxGeometry relative="1" as="geometry" />
        </mxCell>
        <mxCell id="8i48zz007QwOmcsbFa2n-1" value="应用程序发起调用" style="ellipse;whiteSpace=wrap;html=1;" parent="1" vertex="1">
          <mxGeometry x="354" y="60" width="120" height="60" as="geometry" />
        </mxCell>
        <mxCell id="8i48zz007QwOmcsbFa2n-5" value="" style="edgeStyle=orthogonalEdgeStyle;rounded=0;orthogonalLoop=1;jettySize=auto;html=1;" parent="1" source="8i48zz007QwOmcsbFa2n-2" target="8i48zz007QwOmcsbFa2n-4" edge="1">
          <mxGeometry relative="1" as="geometry" />
        </mxCell>
        <mxCell id="8i48zz007QwOmcsbFa2n-2" value="函数库展开" style="whiteSpace=wrap;html=1;" parent="1" vertex="1">
          <mxGeometry x="354" y="200" width="120" height="60" as="geometry" />
        </mxCell>
        <mxCell id="8i48zz007QwOmcsbFa2n-7" value="" style="edgeStyle=orthogonalEdgeStyle;rounded=0;orthogonalLoop=1;jettySize=auto;html=1;exitX=0.5;exitY=1;exitDx=0;exitDy=0;" parent="1" source="8i48zz007QwOmcsbFa2n-8" target="8i48zz007QwOmcsbFa2n-6" edge="1">
          <mxGeometry relative="1" as="geometry" />
        </mxCell>
        <mxCell id="8i48zz007QwOmcsbFa2n-9" value="" style="edgeStyle=orthogonalEdgeStyle;rounded=0;orthogonalLoop=1;jettySize=auto;html=1;" parent="1" source="8i48zz007QwOmcsbFa2n-4" target="8i48zz007QwOmcsbFa2n-8" edge="1">
          <mxGeometry relative="1" as="geometry" />
        </mxCell>
        <mxCell id="8i48zz007QwOmcsbFa2n-4" value="调用相应的系统接口" style="whiteSpace=wrap;html=1;" parent="1" vertex="1">
          <mxGeometry x="354" y="340" width="120" height="60" as="geometry" />
        </mxCell>
        <mxCell id="8i48zz007QwOmcsbFa2n-15" value="" style="edgeStyle=orthogonalEdgeStyle;rounded=0;orthogonalLoop=1;jettySize=auto;html=1;" parent="1" source="8i48zz007QwOmcsbFa2n-6" target="8i48zz007QwOmcsbFa2n-14" edge="1">
          <mxGeometry relative="1" as="geometry" />
        </mxCell>
        <mxCell id="8i48zz007QwOmcsbFa2n-6" value="解释执行int0x80" style="whiteSpace=wrap;html=1;" parent="1" vertex="1">
          <mxGeometry x="354" y="480" width="120" height="60" as="geometry" />
        </mxCell>
        <mxCell id="F2EnbetTdR6OC5Q4fQi2-4" value="" style="edgeStyle=orthogonalEdgeStyle;rounded=0;orthogonalLoop=1;jettySize=auto;html=1;" edge="1" parent="1" source="8i48zz007QwOmcsbFa2n-8" target="F2EnbetTdR6OC5Q4fQi2-3">
          <mxGeometry relative="1" as="geometry" />
        </mxCell>
        <mxCell id="8i48zz007QwOmcsbFa2n-8" value="展开成一段包含int0x80的代码" style="shape=process;whiteSpace=wrap;html=1;backgroundOutline=1;" parent="1" vertex="1">
          <mxGeometry x="554" y="340" width="120" height="60" as="geometry" />
        </mxCell>
        <mxCell id="8i48zz007QwOmcsbFa2n-17" value="" style="edgeStyle=orthogonalEdgeStyle;rounded=0;orthogonalLoop=1;jettySize=auto;html=1;" parent="1" source="8i48zz007QwOmcsbFa2n-14" target="8i48zz007QwOmcsbFa2n-16" edge="1">
          <mxGeometry relative="1" as="geometry" />
        </mxCell>
        <mxCell id="8i48zz007QwOmcsbFa2n-14" value="查找IDT" style="shape=process;whiteSpace=wrap;html=1;backgroundOutline=1;" parent="1" vertex="1">
          <mxGeometry x="554" y="480" width="120" height="60" as="geometry" />
        </mxCell>
        <mxCell id="8i48zz007QwOmcsbFa2n-16" value="跳到system_call函数执行" style="shape=process;whiteSpace=wrap;html=1;backgroundOutline=1;" parent="1" vertex="1">
          <mxGeometry x="754" y="480" width="120" height="60" as="geometry" />
        </mxCell>
        <mxCell id="F2EnbetTdR6OC5Q4fQi2-1" value="" style="strokeWidth=2;html=1;shape=mxgraph.flowchart.annotation_2;align=left;labelPosition=right;pointerEvents=1;rotation=-90;" vertex="1" parent="1">
          <mxGeometry x="601" y="277.5" width="26" height="100" as="geometry" />
        </mxCell>
        <mxCell id="F2EnbetTdR6OC5Q4fQi2-2" value="_syscall1()&lt;br&gt;_syscall2()&lt;br&gt;_syscall3()" style="text;html=1;align=center;verticalAlign=middle;resizable=0;points=[];autosize=1;strokeColor=none;fillColor=none;" vertex="1" parent="1">
          <mxGeometry x="574" y="270" width="80" height="50" as="geometry" />
        </mxCell>
        <mxCell id="F2EnbetTdR6OC5Q4fQi2-3" value="_syscall1()" style="shape=process;whiteSpace=wrap;html=1;backgroundOutline=1;" vertex="1" parent="1">
          <mxGeometry x="754" y="340" width="120" height="60" as="geometry" />
        </mxCell>
        <mxCell id="F2EnbetTdR6OC5Q4fQi2-5" value="" style="strokeWidth=2;html=1;shape=mxgraph.flowchart.annotation_2;align=left;labelPosition=right;pointerEvents=1;rotation=-90;" vertex="1" parent="1">
          <mxGeometry x="798.5" y="277.5" width="31" height="100" as="geometry" />
        </mxCell>
        <mxCell id="F2EnbetTdR6OC5Q4fQi2-6" value="__asm__ 编译成汇编" style="text;html=1;align=center;verticalAlign=middle;resizable=0;points=[];autosize=1;strokeColor=none;fillColor=none;" vertex="1" parent="1">
          <mxGeometry x="744" y="290" width="140" height="20" as="geometry" />
        </mxCell>
      </root>
    </mxGraphModel>
  </diagram>
  <diagram id="4U_wS6lFzTyK81jKNUYr" name="添加一个系统接口">
    <mxGraphModel dx="1038" dy="664" grid="1" gridSize="10" guides="1" tooltips="1" connect="1" arrows="1" fold="1" page="1" pageScale="1" pageWidth="827" pageHeight="1169" math="0" shadow="0">
      <root>
        <mxCell id="o6UrUXVYG92HkXCSrQW5-0" />
        <mxCell id="o6UrUXVYG92HkXCSrQW5-1" parent="o6UrUXVYG92HkXCSrQW5-0" />
      </root>
    </mxGraphModel>
  </diagram>
</mxfile>
